<?xml version="1.0" encoding="utf-8"?>
<svg version="1.1" xmlns:xlink="http://www.w3.org/1999/xlink" width="80px" height="100px" xmlns="http://www.w3.org/2000/svg">
  <g transform="matrix(1 0 0 1 -753 -187 )">
    <path d="M 60.2083333333333 3.79464285714286  L 76.4583333333333 21.2053571428571  C 77.4305555555556 22.2470238095238  78.2638888888889 23.6607142857143  78.9583333333333 25.4464285714286  C 79.6527777777778 27.2321428571429  80 28.8690476190476  80 30.3571428571429  L 80 94.6428571428571  C 80 96.1309523809524  79.5138888888889 97.3958333333333  78.5416666666667 98.4375  C 77.5694444444445 99.4791666666667  76.3888888888889 100  75 100  L 5 100  C 3.61111111111111 100  2.43055555555556 99.4791666666667  1.45833333333333 98.4375  C 0.486111111111111 97.3958333333333  0 96.1309523809524  0 94.6428571428571  L 0 5.35714285714286  C 0 3.86904761904762  0.486111111111111 2.60416666666666  1.45833333333333 1.5625  C 2.43055555555556 0.520833333333337  3.61111111111111 0  5 0  L 51.6666666666667 0  C 53.0555555555556 0  54.5833333333333 0.372023809523814  56.25 1.11607142857143  C 57.9166666666667 1.86011904761905  59.2361111111111 2.75297619047619  60.2083333333333 3.79464285714286  Z M 55.46875 8.81696428571429  C 55.0520833333333 8.37053571428571  54.3402777777778 7.96130952380951  53 7.58928571428571  L 53 29  L 72.9166666666667 29  C 72.5694444444445 27.4925595238095  72.1875 26.7299107142857  71.7708333333333 26.2834821428571  L 55.46875 8.81696428571429  Z M 7 92  L 73 92  L 73 36  L 51.6666666666667 36  C 50.2777777777778 35.7142857142857  49.0972222222222 35.1934523809524  48.125 34.1517857142857  C 47.1527777777778 33.110119047619  46.6666666666667 31.8452380952381  46 30.3571428571429  L 46 8  L 7 8  L 7 92  Z M 20 48.2142857142857  L 20 44.6428571428571  C 20 44.1220238095238  20.15625 43.6941964285714  20.46875 43.359375  C 20.78125 43.0245535714286  21.1805555555556 42.8571428571429  21.6666666666667 43  L 58.3333333333333 43  C 58.8194444444445 42.8571428571429  59.21875 43.0245535714286  59.53125 43.359375  C 59.84375 43.6941964285714  60 44.1220238095238  60 44.6428571428571  L 60 48.2142857142857  C 60 48.735119047619  59.84375 49.1629464285714  59.53125 49.4977678571429  C 59.21875 49.8325892857143  58.8194444444445 50  58.3333333333333 50  L 21.6666666666667 50  C 21.1805555555556 50  20.78125 49.8325892857143  20.46875 49.4977678571429  C 20.15625 49.1629464285714  20 48.735119047619  20 48.2142857142857  Z M 21.6666666666667 57  L 58.3333333333333 57  C 58.8194444444445 57.1428571428571  59.21875 57.3102678571429  59.53125 57.6450892857143  C 59.84375 57.9799107142857  60 58.4077380952381  60 58.9285714285714  L 60 62.5  C 60 63.0208333333333  59.84375 63.4486607142857  59.53125 63.7834821428571  C 59.21875 64.1183035714286  58.8194444444445 64.2857142857143  58.3333333333333 64  L 21.6666666666667 64  C 21.1805555555556 64.2857142857143  20.78125 64.1183035714286  20.46875 63.7834821428571  C 20.15625 63.4486607142857  20 63.0208333333333  20 62.5  L 20 58.9285714285714  C 20 58.4077380952381  20.15625 57.9799107142857  20.46875 57.6450892857143  C 20.78125 57.3102678571429  21.1805555555556 57.1428571428571  21.6666666666667 57  Z M 21.6666666666667 71  L 58.3333333333333 71  C 58.8194444444445 71.4285714285714  59.21875 71.5959821428571  59.53125 71.9308035714286  C 59.84375 72.265625  60 72.6934523809524  60 73.2142857142857  L 60 76.7857142857143  C 60 77.3065476190476  59.84375 77.734375  59.53125 78.0691964285714  C 59.21875 78.4040178571429  58.8194444444445 78.5714285714286  58.3333333333333 78  L 21.6666666666667 78  C 21.1805555555556 78.5714285714286  20.78125 78.4040178571429  20.46875 78.0691964285714  C 20.15625 77.734375  20 77.3065476190476  20 76.7857142857143  L 20 73.2142857142857  C 20 72.6934523809524  20.15625 72.265625  20.46875 71.9308035714286  C 20.78125 71.5959821428571  21.1805555555556 71.4285714285714  21.6666666666667 71  Z " fill-rule="nonzero" fill="#0187c1" stroke="none" fill-opacity="0.996078431372549" transform="matrix(1 0 0 1 753 187 )" />
  </g>
</svg>